<svg xmlns="http://www.w3.org/2000/svg" viewBox="0 0 162 150"><style><![CDATA[.H{letter-spacing:-1}.I{fill:#234190}.J{font-family:CarroisGothicSC-Regular}.K{font-size:17px}]]></style><g class="I"><circle cx="107.6" cy="58.6" r="4.4"/><circle cx="107.8" cy="89.8" r="4.4"/></g><g fill="none" stroke-miterlimit="10"><path d="M107.7 57.5c-9.8-25.9-38.8-39-64.7-29.2C17 38.1 3.9 67.1 13.7 93s38.8 39 64.7 29.2c14.8-5.6 26.1-17.8 30.5-33" stroke="#234190" stroke-width="3"/><g stroke="#1499cf" stroke-width="2"><path d="M115.7 51.2C109.6 32.5 89.1 16.8 68 16.8c-27.2 0-49.2 26.7-49.2 59.7s21.8 54.8 49 54.8c22.4 0 42.6-10.6 52.2-35.6"/><path d="M130.6 56.9c-7-24.9-27.4-48.4-50.8-48.4-27.2 0-52.4 29.6-52.4 66.1s25.2 66.9 52.4 66.9c22.4 0 44.5-23.8 50.5-49.6"/><path d="M142.8 56.7c-5.9-22.1-27.9-39.9-58.3-37.1-27.1 2.5-49.2 25.3-49.2 56.5s22.9 52.8 50 54.8c27.3 2 52.8-13.2 58.8-36.7"/></g></g><g fill="#1499cf"><circle cx="142.8" cy="56.7" r="2.5"/><circle cx="144" cy="92.7" r="6.1"/><circle cx="115.7" cy="51.2" r="3.2"/><circle cx="130.2" cy="91.4" r="2.7"/><circle cx="118.6" cy="97.5" r="3.9"/><circle cx="129.6" cy="55.9" r="5.8"/></g><text transform="translate(60.81 78.595)" class="I J K">c</text><text transform="translate(70.04 78.595)" class="I J K">yber</text><text transform="translate(104.99 78.595)" class="H I J K">l</text><text transform="translate(111.78 78.595)" class="I J K">yti</text><text transform="translate(132.36 78.595)" class="I J K">c</text><text transform="translate(141.85 78.595)" class="I J K">a</text></svg>